<?xml version="1.0" encoding="UTF-8" standalone="no"?>
<svg
   xmlns:dc="http://purl.org/dc/elements/1.1/"
   xmlns:cc="http://creativecommons.org/ns#"
   xmlns:rdf="http://www.w3.org/1999/02/22-rdf-syntax-ns#"
   xmlns:svg="http://www.w3.org/2000/svg"
   xmlns="http://www.w3.org/2000/svg"
   xmlns:sodipodi="http://sodipodi.sourceforge.net/DTD/sodipodi-0.dtd"
   xmlns:inkscape="http://www.inkscape.org/namespaces/inkscape"
   version="1.1"
   id="svg2"
   viewBox="0 0 368.50371 92.125935"
   height="26mm"
   width="104mm"
   inkscape:version="0.91 r13725"
   sodipodi:docname="questionable_paths.svg">
  <sodipodi:namedview
     pagecolor="#ffffff"
     bordercolor="#666666"
     borderopacity="1"
     objecttolerance="10"
     gridtolerance="10"
     guidetolerance="10"
     inkscape:pageopacity="0"
     inkscape:pageshadow="2"
     inkscape:window-width="1600"
     inkscape:window-height="876"
     id="namedview38"
     showgrid="false"
     inkscape:zoom="2.0506638"
     inkscape:cx="212.09926"
     inkscape:cy="43.458486"
     inkscape:window-x="0"
     inkscape:window-y="24"
     inkscape:window-maximized="1"
     inkscape:current-layer="svg2" />
  <defs
     id="defs4" />
  <metadata
     id="metadata7">
    <rdf:RDF>
      <cc:Work
         rdf:about="">
        <dc:format>image/svg+xml</dc:format>
        <dc:type
           rdf:resource="http://purl.org/dc/dcmitype/StillImage" />
        <dc:title></dc:title>
      </cc:Work>
    </rdf:RDF>
  </metadata>
  <g
     transform="translate(-16.579987,-956.82226)"
     id="layer1">
    <flowRoot
       transform="translate(-24.999997,659.28563)"
       style="font-style:normal;font-weight:normal;font-size:40px;line-height:125%;font-family:sans-serif;letter-spacing:0px;word-spacing:0px;fill:#000000;fill-opacity:1;stroke:none;stroke-width:1px;stroke-linecap:butt;stroke-linejoin:miter;stroke-opacity:1"
       id="flowRoot3336"
       xml:space="preserve"><flowRegion
         id="flowRegion3338"><rect
           y="209.50507"
           x="102.85714"
           height="231.42857"
           width="671.42859"
           id="rect3340" /></flowRegion><flowPara
         id="flowPara3342" /></flowRoot>    <g
       id="flowRoot3392"
       style="font-style:italic;font-variant:normal;font-weight:800;font-stretch:normal;font-size:50px;line-height:125%;font-family:Exo;-inkscape-font-specification:'Exo, Ultra-Bold Italic';text-align:start;letter-spacing:0px;word-spacing:0px;writing-mode:lr-tb;text-anchor:start;fill:#930000;fill-opacity:1;stroke:none;stroke-width:1px;stroke-linecap:butt;stroke-linejoin:miter;stroke-opacity:1"
       transform="translate(-25.714282,660.7142)">
      <path
         id="path4193"
         d="m 55.972266,335.49807 q -4.2,0 -7.05,-0.95 -2.8,-1 -4.4,-3.6 -1.6,-2.65 -1.6,-7.45 0,-3.4 0.75,-8 1.05,-6.85 3.2,-10.65 2.2,-3.85 5.8,-5.45 3.6,-1.6 9.3,-1.6 4.15,0 6.95,1.05 2.85,1 4.5,3.8 1.65,2.75 1.65,7.75 0,3.15 -0.75,7.9 -1.1,7 -3.3,10.7 -2.15,3.7 -5.7,5.1 -3.5,1.4 -9.35,1.4 z m 1.35,-7.8 q 2.7,0 4.3,-1.05 1.6,-1.1 2.5,-3.35 0.95,-2.25 1.6,-6.15 0.7,-4.55 0.7,-6.65 0,-2.9 -1.3,-3.9 -1.25,-1.05 -4.35,-1.05 -2.65,0 -4.25,0.95 -1.6,0.95 -2.6,3.3 -0.95,2.35 -1.65,6.8 -0.75,4.25 -0.75,6.45 0,2.65 1.3,3.65 1.3,1 4.5,1 z m 6.15,17.7 q -4.3,0 -6.95,-2.05 -2.6,-2 -2.6,-6.15 l 5.95,0 q 0.1,1.2 0.95,1.7 0.85,0.5 2.6,0.5 2.05,0 4.15,-0.5 l -0.95,6.3 q -1.2,0.2 -3.15,0.2 z"
         inkscape:connector-curvature="0" />
      <path
         id="path4195"
         transform="translate(25.714282,285.34837)"
         d="m 56.716797,12.75 -2.775391,17.447266 8.65625,0 2.769532,-17.447266 -8.650391,0 z m 20.150391,0 -2.728516,17.447266 8.613281,0 2.765625,-17.447266 -8.65039,0 z m -23.277344,19.652344 -0.02344,0.146484 c -0.433333,2.733335 -0.65039,4.783723 -0.65039,6.150391 0,4.000002 1.017446,6.916665 3.050781,8.75 2.066668,1.800001 5.18294,2.701172 9.349609,2.701172 3.366669,0 6.116666,-0.383724 8.25,-1.150391 2.133336,-0.766667 3.900781,-2.233723 5.300782,-4.400391 1.4,-2.166668 2.432942,-5.315883 3.099609,-9.449218 l 0.435547,-2.748047 -8.609375,0 -0.226563,1.447265 c -0.366667,2.300002 -0.849218,4.067448 -1.449218,5.300782 -0.566668,1.233334 -1.301172,2.082161 -2.201172,2.548828 -0.866668,0.466667 -1.998437,0.701172 -3.398438,0.701172 -1.766668,0 -3.051562,-0.350781 -3.851562,-1.050782 -0.766667,-0.733333 -1.148438,-1.867056 -1.148438,-3.40039 0,-0.666667 0.166667,-2.032942 0.5,-4.09961 l 0.230469,-1.447265 -8.658203,0 z"
         inkscape:connector-curvature="0" />
      <path
         id="path4197"
         transform="translate(25.714282,285.34837)"
         d="m 100.23633,12.75 c -6.000005,0 -9.465105,2.999996 -10.398439,9 l -1.347657,8.447266 21.738286,0 0.35937,-2.347657 -12.999999,-0.449218 0.548828,-3.5 C 98.303386,22.80039 98.636718,22 99.136719,21.5 99.670052,21 100.47044,20.75 101.53711,20.75 l 12.69922,0 1.15039,-7.300781 C 109.85338,13.015885 104.803,12.783333 100.23633,12.75 Z M 88.138672,32.402344 86.6875,41.5 c -0.1,0.633334 -0.150391,1.249609 -0.150391,1.849609 0,2.566669 0.833333,4.349609 2.5,5.34961 1.666668,0.966667 3.60078,1.451172 5.800782,1.451172 4.066669,0 9.031769,-0.284896 14.898439,-0.851563 l 1.15039,-7.25 -12.548829,0 c -1.766668,0 -2.650391,-0.732551 -2.650391,-2.199219 0,-0.333333 0.0155,-0.583333 0.04883,-0.75 l 0.601563,-3.949218 13.199217,-0.451172 0.35156,-2.296875 -21.749996,0 z"
         inkscape:connector-curvature="0" />
      <path
         id="path4199"
         transform="translate(25.714282,285.34837)"
         d="m 132.66797,12.449219 c -4,0 -7.15117,0.767447 -9.45117,2.300781 -2.3,1.500001 -3.73216,3.98255 -4.29883,7.449219 l -0.45117,2.90039 c -0.1,0.733334 -0.14844,1.432943 -0.14844,2.09961 0,1.09328 0.1642,2.089634 0.47656,2.998047 l 21.44336,0 c -0.1791,-0.188769 -0.36748,-0.371344 -0.57031,-0.546875 -1.73334,-1.500001 -4.18294,-2.25 -7.34961,-2.25 l -2.65039,0 c -1,0 -1.73451,-0.184115 -2.20117,-0.550782 -0.46667,-0.4 -0.69922,-1.00078 -0.69922,-1.800781 0,-0.166667 0.0329,-0.482552 0.0996,-0.949219 l 0.15039,-0.90039 c 0.16666,-1.100001 0.61627,-1.865495 1.34961,-2.298828 0.76666,-0.433334 1.8345,-0.650391 3.20117,-0.650391 4.46667,0 8.3,0.133724 11.5,0.400391 l 1.04883,-6.800782 c -3.63334,-0.933334 -7.44922,-1.40039 -11.44922,-1.40039 z M 120,32.402344 c 0.23432,0.295307 0.48404,0.581479 0.76758,0.847656 1.66667,1.533334 3.93411,2.298828 6.80078,2.298828 l 2.44922,0 c 1.36667,0 2.33372,0.166667 2.90039,0.5 0.6,0.3 0.90039,0.85039 0.90039,1.650391 0,0.333333 -0.0175,0.600781 -0.0508,0.800781 l -0.15039,0.900391 c -0.16667,1.166667 -0.69961,1.965104 -1.59961,2.398437 -0.86667,0.4 -2.31628,0.601563 -4.34961,0.601563 -4.43334,0 -8.16784,-0.151172 -11.20117,-0.451172 l -1.04883,6.849609 c 3.53333,0.900001 7.68255,1.351563 12.44922,1.351563 3.06667,0 5.55117,-0.333333 7.45117,-1 1.9,-0.666667 3.33216,-1.651171 4.29883,-2.951172 0.96666,-1.333334 1.61784,-3.05039 1.95117,-5.150391 l 0.54883,-3.5 c 0.1,-0.7 0.15039,-1.349218 0.15039,-1.949219 0,-1.176781 -0.20315,-2.240497 -0.59766,-3.197265 l -21.66992,0 z"
         inkscape:connector-curvature="0" />
      <path
         id="path4201"
         transform="translate(25.714282,285.34837)"
         d="m 148.12891,12.75 -1.25,7.75 9.65039,0 -1.53711,9.697266 8.65039,0 1.53515,-9.697266 9.60157,0 1.25,-7.75 -27.90039,0 z m 6.51367,19.652344 -2.76367,17.447265 8.65039,0 2.76367,-17.447265 -8.65039,0 z"
         inkscape:connector-curvature="0" />
      <path
         id="path4203"
         transform="translate(25.714282,285.34837)"
         d="m 180.54492,12.75 -2.77539,17.447266 8.65039,0 2.77539,-17.447266 -8.65039,0 z m -3.125,19.652344 -2.77539,17.447265 8.65039,0 2.77539,-17.447265 -8.65039,0 z"
         inkscape:connector-curvature="0" />
      <path
         id="path4205"
         transform="translate(25.714282,285.34837)"
         d="m 209.59766,12.449219 c -3.80001,0 -6.89883,0.532942 -9.29883,1.599609 -2.4,1.066667 -4.33412,2.884504 -5.80078,5.451172 -1.43334,2.533335 -2.49922,6.083721 -3.19922,10.650391 -0.003,0.0162 -0.005,0.0307 -0.008,0.04687 l 8.79101,0 c 0.42633,-2.439904 0.91307,-4.378308 1.4668,-5.748047 0.66667,-1.566668 1.53294,-2.665495 2.59961,-3.298828 1.06666,-0.633334 2.48333,-0.951172 4.25,-0.951172 2.06667,0 3.51627,0.350781 4.34961,1.050781 0.86666,0.666667 1.30078,1.967056 1.30078,3.900391 0,1.115297 -0.19212,2.895004 -0.48828,5.046875 l 8.76953,0 c 0.23981,-1.965957 0.36719,-3.694082 0.36719,-5.148438 0,-3.333335 -0.54844,-5.916665 -1.64844,-7.75 -1.1,-1.866668 -2.6,-3.132161 -4.5,-3.798828 -1.86667,-0.7 -4.18451,-1.050781 -6.95117,-1.050781 z M 190.9668,32.402344 c -0.27878,2.138547 -0.41797,4.055541 -0.41797,5.748047 0,3.200002 0.53294,5.682551 1.59961,7.449218 1.06666,1.733335 2.53372,2.932943 4.40039,3.59961 1.9,0.633333 4.24882,0.951172 7.04883,0.951172 3.9,0 7.01627,-0.467057 9.34961,-1.400391 2.36666,-0.933334 4.26783,-2.632941 5.70117,-5.099609 1.46667,-2.466669 2.56549,-6.034503 3.29883,-10.701172 0.03,-0.190236 0.0499,-0.360489 0.0781,-0.546875 l -8.78906,0 c -0.41295,2.305277 -0.90665,4.169329 -1.48828,5.546875 -0.6,1.500001 -1.43334,2.616275 -2.5,3.349609 -1.06667,0.700001 -2.50078,1.050781 -4.30078,1.050781 -2.13334,0 -3.63334,-0.333333 -4.5,-1 -0.86667,-0.666667 -1.29883,-1.883723 -1.29883,-3.65039 0,-1.25499 0.19445,-3.04124 0.56054,-5.296875 l -8.74218,0 z"
         inkscape:connector-curvature="0" />
      <path
         id="path4207"
         transform="translate(25.714282,285.34837)"
         d="m 230.05664,12.75 -2.77539,17.447266 8.63477,0 0.4414,-2.796875 1.32617,2.796875 7.5,0 -8.27734,-17.447266 -6.84961,0 z m 21.05078,0 -2.75976,17.447266 8.63476,0 2.77344,-17.447266 -8.64844,0 z m -24.17578,19.652344 -2.77539,17.447265 8.65039,0 2.75977,-17.447265 -8.63477,0 z m 11.79883,0 8.27539,17.447265 6.85156,0 2.77344,-17.447265 -8.63281,0 -0.44141,2.796875 -1.32617,-2.796875 -7.5,0 z"
         inkscape:connector-curvature="0" />
      <path
         id="path4209"
         transform="translate(25.714282,285.34837)"
         d="m 274.46484,12.75 -8.08789,17.447266 8.07422,0 4.16406,-10.046875 0.99219,10.046875 8.19727,0 -2.53907,-17.447266 -10.80078,0 z m -9.11132,19.652344 -8.0879,17.447265 8.84961,0 2.94922,-6.75 11.85157,0 0.79882,6.75 8.95118,0 -2.53907,-17.447265 -8.30273,0 0.29101,2.947265 -7.80078,0 1.22266,-2.947265 -8.18359,0 z"
         inkscape:connector-curvature="0" />
      <path
         id="path4211"
         transform="translate(25.714282,285.34837)"
         d="m 300.27148,12.75 -2.72851,17.447266 21.58789,0 c 1.30061,-0.473241 2.41523,-1.220699 3.33984,-2.248047 1.2,-1.366668 1.95,-2.965494 2.25,-4.798828 0.13334,-0.833334 0.20118,-1.717057 0.20118,-2.650391 0,-2.500001 -0.73451,-4.416666 -2.20118,-5.75 -1.43333,-1.333334 -3.96627,-2 -7.59961,-2 l -14.84961,0 z m 7.44922,7.75 5.55078,0 c 1.06667,0 1.84961,0.182161 2.34961,0.548828 0.5,0.366667 0.75,0.984895 0.75,1.851563 0,0.366667 -0.0833,0.965494 -0.25,1.798828 -0.43333,1.966668 -1.63294,2.951172 -3.59961,2.951172 l -5.94921,0 L 307.7207,20.5 Z m -10.52148,11.902344 -2.72852,17.447265 14.85157,0 c 4.1,0 7.28216,-0.666665 9.54882,-2 2.26667,-1.366667 3.65039,-3.634112 4.15039,-6.800781 0.2,-1.100001 0.30079,-2.148437 0.30079,-3.148437 0,-2.100002 -0.45157,-3.718229 -1.35157,-4.851563 -0.17074,-0.229842 -0.36596,-0.442516 -0.57422,-0.646484 l -24.19726,0 z m 8.32226,1.796875 6,0 c 1.30001,0 2.23412,0.234505 2.80079,0.701172 0.6,0.433333 0.89843,1.132942 0.89843,2.099609 0,0.5 -0.0329,0.899219 -0.0996,1.199219 -0.2,1.433334 -0.64961,2.450781 -1.34961,3.050781 -0.7,0.566667 -1.81627,0.849609 -3.3496,0.849609 l -6.09961,0 1.19921,-7.90039 z"
         inkscape:connector-curvature="0" />
      <path
         id="path4213"
         transform="translate(25.714282,285.34837)"
         d="m 332.40039,12.75 -2.75391,17.447266 8.62696,0 2.77734,-17.447266 -8.65039,0 z m -3.10351,19.652344 -1.2461,7.896484 c -0.13333,0.800001 -0.20117,1.60039 -0.20117,2.400391 0,2.400001 0.66667,4.20039 2,5.40039 1.36667,1.166668 3.26784,1.75 5.70117,1.75 l 13.75,0 1.25,-7.75 -11.15039,0 c -1.73333,0 -2.59961,-0.717056 -2.59961,-2.15039 0,-0.333334 0.0155,-0.598828 0.0488,-0.798828 l 1.07422,-6.748047 -8.62695,0 z"
         inkscape:connector-curvature="0" />
      <path
         id="path4215"
         transform="translate(25.714282,285.34837)"
         d="m 368.10742,12.75 c -6,0 -9.4651,2.999996 -10.39844,9 l -1.34765,8.447266 21.73828,0 0.35937,-2.347657 -13,-0.449218 0.54883,-3.5 c 0.16667,-1.100001 0.5,-1.900391 1,-2.400391 0.53334,-0.5 1.33373,-0.75 2.40039,-0.75 l 12.69922,0 1.15039,-7.300781 C 377.72448,13.015885 372.67409,12.783333 368.10742,12.75 Z M 356.00977,32.402344 354.55859,41.5 c -0.1,0.633334 -0.15039,1.249609 -0.15039,1.849609 0,2.566669 0.83334,4.349609 2.5,5.34961 1.66667,0.966667 3.60078,1.451172 5.80078,1.451172 4.06667,0 9.03177,-0.284896 14.89844,-0.851563 l 1.15039,-7.25 -12.54883,0 c -1.76666,0 -2.65039,-0.732551 -2.65039,-2.199219 0,-0.333333 0.0155,-0.583333 0.0488,-0.75 l 0.60156,-3.949218 13.19922,-0.451172 0.35157,-2.296875 -21.75,0 z"
         inkscape:connector-curvature="0" />
    </g>
    <text
       id="text4152"
       y="1207.3621"
       x="412.85715"
       style="font-style:normal;font-weight:normal;font-size:40px;line-height:125%;font-family:sans-serif;letter-spacing:0px;word-spacing:0px;fill:#000000;fill-opacity:1;stroke:none;stroke-width:1px;stroke-linecap:butt;stroke-linejoin:miter;stroke-opacity:1"
       xml:space="preserve"
       sodipodi:linespacing="125%"><tspan
         y="1207.3621"
         x="412.85715"
         id="tspan4154" /></text>
    <flowRoot
       transform="translate(-24.999997,659.28563)"
       style="font-style:italic;font-variant:normal;font-weight:800;font-stretch:normal;font-size:40px;line-height:125%;font-family:Exo;-inkscape-font-specification:'Exo, Ultra-Bold Italic';text-align:start;letter-spacing:0px;word-spacing:0px;writing-mode:lr-tb;text-anchor:start;fill:#000000;fill-opacity:1;stroke:none;stroke-width:1px;stroke-linecap:butt;stroke-linejoin:miter;stroke-opacity:1"
       id="flowRoot4156"
       xml:space="preserve"><flowRegion
         id="flowRegion4158"><rect
           style="font-style:italic;font-variant:normal;font-weight:800;font-stretch:normal;font-size:40px;line-height:125%;font-family:Exo;-inkscape-font-specification:'Exo, Ultra-Bold Italic';text-align:start;writing-mode:lr-tb;text-anchor:start"
           y="344.50507"
           x="156.42857"
           height="102.14286"
           width="266.42856"
           id="rect4160" /></flowRegion><flowPara
         id="flowPara4162" /></flowRoot>    <g
       transform="translate(-24.999997,659.28563)"
       id="g4156">
      <g
         id="flowRoot3392-1"
         style="font-style:italic;font-variant:normal;font-weight:800;font-stretch:normal;font-size:50px;line-height:125%;font-family:Exo;-inkscape-font-specification:'Exo, Ultra-Bold Italic';text-align:start;letter-spacing:0px;word-spacing:0px;writing-mode:lr-tb;text-anchor:start;fill:#930000;fill-opacity:1;stroke:none;stroke-width:1px;stroke-linecap:butt;stroke-linejoin:miter;stroke-opacity:1"
         transform="translate(143.54766,52.950323)">
        <path
           id="path4178"
           transform="translate(-118.54766,233.82662)"
           d="m 177.32031,63.970703 c -4,0 -7.15117,0.767447 -9.45117,2.300781 -2.3,1.500001 -3.73216,3.98255 -4.29883,7.449219 l -0.45117,2.900391 c -0.1,0.733334 -0.14844,1.432942 -0.14844,2.099609 0,0.936798 0.11441,1.806358 0.34375,2.607422 7.02941,-0.03301 14.06148,-0.0484 21.0918,-0.07422 -0.03,-0.02669 -0.0554,-0.05564 -0.0859,-0.08203 -1.73333,-1.500001 -4.18294,-2.25 -7.34961,-2.25 l -2.65039,0 c -1,0 -1.7345,-0.184114 -2.20117,-0.550781 -0.46667,-0.4 -0.69922,-0.998828 -0.69922,-1.798828 0,-0.166667 0.0329,-0.484505 0.0996,-0.951172 l 0.15039,-0.900391 c 0.16667,-1.100001 0.61628,-1.865494 1.34961,-2.298828 0.76667,-0.433334 1.83451,-0.650391 3.20117,-0.650391 4.46667,0 8.3,0.133724 11.5,0.400391 l 1.04883,-6.800781 c -3.63333,-0.933334 -7.44922,-1.400391 -11.44922,-1.400391 z m 8.59375,19.113281 c -7.2642,0.02622 -14.52974,0.04233 -21.79297,0.07617 0.35383,0.583902 0.78054,1.124764 1.29883,1.611328 1.66667,1.533335 3.93411,2.300782 6.80078,2.300782 l 2.44922,0 c 1.36667,0 2.33373,0.166666 2.90039,0.5 0.6,0.3 0.90039,0.848437 0.90039,1.648437 0,0.333334 -0.0174,0.600781 -0.0508,0.800781 l -0.15039,0.900391 c -0.16667,1.166667 -0.69961,1.967057 -1.59961,2.400391 -0.86667,0.4 -2.31627,0.599609 -4.34961,0.599609 -4.43333,0 -8.16783,-0.151172 -11.20117,-0.451172 l -1.04883,6.851569 c 3.53334,0.9 7.68255,1.34961 12.44922,1.34961 3.06667,0 5.55117,-0.33334 7.45117,-1 1.9,-0.66667 3.33216,-1.651178 4.29883,-2.951179 0.96667,-1.333334 1.61784,-3.048436 1.95117,-5.148437 l 0.54883,-3.5 c 0.1,-0.700001 0.15039,-1.351172 0.15039,-1.951172 0,-1.53267 -0.33665,-2.877649 -1.00586,-4.03711 z"
           inkscape:connector-curvature="0" />
        <path
           id="path4180"
           transform="translate(-118.54766,233.82662)"
           d="m 192.33008,64.271484 4.31445,16.941407 c 2.71623,-0.0084 5.43208,-0.0219 8.14844,-0.0293 l -3.0625,-16.91211 -9.40039,0 z m 21.55078,0 -8.74609,16.910157 c 2.8316,-0.0077 5.6624,-0.02271 8.49414,-0.0293 l 10.05273,-16.88086 -9.80078,0 z m -1.34766,18.71875 c -5.14135,0.01227 -10.28098,0.03881 -15.42187,0.05469 l 2.01953,7.925781 -1.65039,10.400385 8.65039,0 1.65039,-10.400385 4.75195,-7.980469 z"
           inkscape:connector-curvature="0" />
        <path
           id="path4182"
           transform="translate(-118.54766,233.82662)"
           d="m 238.55078,63.970703 c -4,0 -7.15117,0.767447 -9.45117,2.300781 -2.3,1.500001 -3.73216,3.98255 -4.29883,7.449219 l -0.45117,2.900391 c -0.1,0.733334 -0.14844,1.432942 -0.14844,2.099609 0,0.862782 0.1043,1.66446 0.29883,2.412109 6.99092,-0.01292 13.98293,-0.01283 20.97461,-0.01953 -1.72888,-1.45855 -4.15083,-2.191406 -7.27344,-2.191406 l -2.65039,0 c -1,0 -1.7345,-0.184114 -2.20117,-0.550781 -0.46667,-0.4 -0.69922,-0.998828 -0.69922,-1.798828 0,-0.166667 0.0329,-0.484505 0.0996,-0.951172 l 0.15039,-0.900391 c 0.16667,-1.100001 0.61628,-1.865494 1.34961,-2.298828 0.76667,-0.433334 1.8345,-0.650391 3.20117,-0.650391 4.46667,0 8.3,0.133724 11.5,0.400391 L 250,65.371094 c -3.63334,-0.933334 -7.44922,-1.400391 -11.44922,-1.400391 z m 8.50586,18.974609 c -7.27424,0.0065 -14.54888,0.0082 -21.82226,0.02148 0.37271,0.660247 0.84053,1.264442 1.41601,1.804687 1.66667,1.533335 3.93411,2.300782 6.80078,2.300782 l 2.44922,0 c 1.36667,0 2.33372,0.166666 2.90039,0.5 0.6,0.3 0.90039,0.848437 0.90039,1.648437 0,0.333334 -0.0174,0.600781 -0.0508,0.800781 L 239.5,90.921875 c -0.16667,1.166667 -0.69961,1.967057 -1.59961,2.400391 -0.86667,0.4 -2.31627,0.599609 -4.34961,0.599609 -4.43333,0 -8.16784,-0.151172 -11.20117,-0.451172 l -1.04883,6.851567 c 3.53334,0.9 7.68255,1.34961 12.44922,1.34961 3.06667,0 5.55117,-0.33334 7.45117,-1 1.9,-0.66667 3.33216,-1.651176 4.29883,-2.951177 0.96667,-1.333334 1.61784,-3.048436 1.95117,-5.148437 l 0.54883,-3.5 c 0.1,-0.700001 0.15039,-1.351172 0.15039,-1.951172 0,-1.595255 -0.36878,-2.984838 -1.09375,-4.175782 z"
           inkscape:connector-curvature="0" />
        <path
           id="path4184"
           transform="translate(-118.54766,233.82662)"
           d="m 254.01172,64.271484 -1.25,7.75 9.65039,0 -1.4375,9.076172 c 2.88374,-9.48e-4 5.76653,-0.0078 8.65039,-0.0078 l 1.43555,-9.06836 9.60156,0 1.25,-7.75 -27.90039,0 z m 15.32226,18.652344 c -2.88385,-2.3e-5 -5.76666,0.0088 -8.65039,0.0098 l -2.92187,18.437492 8.65039,0 2.92187,-18.447258 z"
           inkscape:connector-curvature="0" />
        <path
           id="path4186"
           transform="translate(-118.54766,233.82662)"
           d="m 294.88867,64.271484 c -6,0 -9.4651,2.999997 -10.39844,9 l -1.24804,7.826172 c 7.2421,0.004 14.48564,0.01753 21.72851,0.02734 l 0.26953,-1.753906 -13,-0.449219 0.54883,-3.5 c 0.16667,-1.100001 0.5,-1.90039 1,-2.400391 0.53334,-0.5 1.33373,-0.75 2.40039,-0.75 l 12.69922,0 1.15039,-7.300781 c -5.53333,-0.433333 -10.58372,-0.665885 -15.15039,-0.699219 z m -11.93945,18.660157 -1.60938,10.089843 c -0.1,0.633334 -0.15039,1.249609 -0.15039,1.84961 0,2.566668 0.83334,4.349609 2.5,5.349606 1.66667,0.96667 3.60078,1.45118 5.80078,1.45118 4.06667,0 9.03177,-0.28295 14.89844,-0.84961 l 1.15039,-7.250004 -12.54883,0 c -1.76666,0 -2.65039,-0.734505 -2.65039,-2.201172 0,-0.333334 0.0155,-0.583333 0.0488,-0.75 l 0.60156,-3.949219 13.19922,-0.451172 0.5,-3.261719 c -7.24669,-0.0098 -14.49426,-0.02344 -21.74023,-0.02734 z"
           inkscape:connector-curvature="0" />
        <path
           id="path4188"
           transform="translate(-118.54766,233.82662)"
           d="m 319.32031,64.271484 -4.75195,16.865235 c 2.7931,0.0047 5.5857,0.0062 8.37891,0.01172 l 0.32226,-1.177735 0.12305,1.177735 c 2.13234,0.0043 4.26408,0.0031 6.39648,0.0078 l -2.36914,-16.884766 -8.09961,0 z m 24.34961,0 -7.76367,16.902344 c 2.06691,0.005 4.13421,0.01407 6.20117,0.01953 l 0.66211,-1.572265 -0.0644,1.574218 c 2.76746,0.0074 5.53519,0.01922 8.30273,0.02734 l 0.66211,-16.951172 -8,0 z m -29.61719,18.699219 -5.18359,18.400387 8.55078,0 5.02735,-18.390621 c -2.79838,-0.0056 -5.59626,-0.005 -8.39454,-0.0098 z m 9.53321,0.01172 1.93359,18.388667 8.10156,0 7.7168,-18.345698 c -2.09102,-0.0055 -4.18247,-0.01448 -6.27344,-0.01953 l -3.84375,8.365235 -1.17578,-8.38086 c -2.15321,-0.0048 -4.30583,-0.0035 -6.45898,-0.0078 z m 19.04297,0.04687 -0.75782,18.341797 8.34961,0 0.71485,-18.316406 c -2.76883,-0.0081 -5.53791,-0.018 -8.30664,-0.02539 z"
           inkscape:connector-curvature="0" />
        <path
           id="path4190"
           transform="translate(-118.54766,233.82662)"
           d="m 371.75391,63.970703 c -4.00001,0 -7.14922,0.76745 -9.44922,2.300781 -2.3,1.500001 -3.73411,3.982547 -4.30078,7.449219 l -0.44922,2.900391 c -0.1,0.73333 -0.15039,1.432939 -0.15039,2.099609 0,0.841221 0.0924,1.627605 0.27734,2.359375 0.0142,0.05606 0.0375,0.106691 0.0527,0.16211 7.04433,0.02219 14.08802,0.04157 21.13281,0.06836 -0.0754,-0.07027 -0.14409,-0.144901 -0.22266,-0.212891 -1.73333,-1.500001 -4.07356,-2.175781 -7.24023,-2.175781 l -2.65039,0 c -1,0 -1.73255,-0.184111 -2.19922,-0.550781 -0.46667,-0.4 -0.70117,-0.998828 -0.70117,-1.798828 0,-0.16667 0.0329,-0.484502 0.0996,-0.951172 l 0.1504,-0.900391 c 0.16667,-1.100001 0.61627,-1.865498 1.3496,-2.298828 0.76668,-0.43333 1.83451,-0.650391 3.20118,-0.650391 4.46667,0 8.29999,0.133721 11.5,0.400391 l 1.04882,-6.800781 c -3.63333,-0.933331 -7.44921,-1.400391 -11.44921,-1.400391 z m -13.25977,19.109375 c 0.36269,0.617433 0.81574,1.181063 1.35938,1.691406 1.66667,1.533331 3.93411,2.300782 6.80078,2.300782 l 2.44922,0 c 1.36667,0 2.33372,0.166669 2.90039,0.5 0.6,0.3 0.90039,0.848437 0.90039,1.648437 0,0.33333 -0.0175,0.600781 -0.0508,0.800781 l -0.1504,0.900391 c -0.16667,1.166671 -0.6996,1.96706 -1.5996,2.400391 -0.86667,0.4 -2.31628,0.599609 -4.34961,0.599609 -4.43334,0 -8.16589,-0.151172 -11.19922,-0.451172 l -1.05078,6.851567 c 3.53333,0.9 7.68254,1.34961 12.44921,1.34961 3.06668,0 5.55118,-0.33333 7.45118,-1 1.9,-0.66668 3.33215,-1.651176 4.29882,-2.951177 0.96668,-1.333331 1.61785,-3.048436 1.95118,-5.148437 l 0.54882,-3.5 c 0.10001,-0.700001 0.1504,-1.351172 0.1504,-1.951172 0,-1.484158 -0.35853,-2.817053 -1.01758,-3.972656 -7.28123,-0.02802 -14.56114,-0.04521 -21.8418,-0.06836 z"
           inkscape:connector-curvature="0" />
      </g>
    </g>
  </g>
</svg>
